<?xml version="1.0"?>
<svg xmlns:rdf="http://www.w3.org/1999/02/22-rdf-syntax-ns#" xmlns="http://www.w3.org/2000/svg" xmlns:cc="http://creativecommons.org/ns#" xmlns:dc="http://purl.org/dc/elements/1.1/" xmlns:svg="http://www.w3.org/2000/svg" id="svg2390" viewBox="0 0 500 500" version="1.0">
  <g id="capa1">
    <path id="path3220" d="m346.91 186.25c1.64 5.66 2.53 12.04 2.53 19.25 0 12.74-2.79 25.02-7.79 36.28 7.34-5.23 13.92-10.59 20.28-15.52 22.54-17.47 43.81-23.55 60.27-24.56 8.82-0.55 23.29-7.35 23.29-15.45h-98.58zm-3.21 19.25c0-44.83-41.03-56.98-77.49-62.81-36.76-5.87-79.26-18.99-79.26-58.24 0-19.245 12.02-38.365 32.66-38.365 30.39 0 35.71 23.044 35.84 26.336 0.12 3.292-8.85 5.63-10.01 12.155-1.39 7.85 2.03 15.704 6.97 22.034 4.4 5.65 10.76 17.09 17.09 16.08 6.78-1.09 9.24-12.66 11.14-20.26 1.9-7.597 5.19-14.056 2.03-21.146-3.92-8.782-7.85-4.433-10.89-10.761-1.74-3.625-8.48-40.392-49.13-40.392-28.35 0-54.19 23.425-56.72 50.014-3.63 38.065 11.39 52.415 43.05 67.365 49.32 23.27 100.53 22.28 100.53 54.95 0 31.9-10.89 48.87-29.63 61.28-3.23 2.14-9.38 4.95-15.4 7.02v22.42c1.24-0.17 2.5-0.36 3.75-0.57 42.04-7.09 75.47-44.57 75.47-87.11zm-48.52-19.25h-240.68c0.005 8.1 14.476 14.9 23.303 15.45 16.46 1.01 37.727 7.09 60.267 24.56 23.02 17.85 48.94 41.34 103.19 43.63v69c3.15 0.58 6.67 0.9 10.51 0.9 1.61 0 4.11-0.1 6.97-0.41v-72.84c29.11-6.38 45.03-31.22 45.03-64.08 0-6.77-2.78-11.85-8.59-16.21zm-53.92 205.36c4.9 2.98 10.91 4.29 17.48 5.17v-26.94c-5.85 0.39-11.73 0.31-17.48-0.27v22.04zm57.87 21.79c-9.37-7.09-21.53-8.74-43.18-11.4-25.63-3.15-32.4-19.28-33.15-36.28-6.65-2.2-12.8-5.27-18.12-9.28-1.23 5.79-1.78 11.81-1.78 17.96 0 25.57 27.57 36.44 47.1 39.25 20.26 2.91 39.25 3.67 41.91 4.81 2.69 1.15 4.31 2.41 5.45 3.67 1.14 1.27 4.17 3.04 6.07 1.77 1.9-1.26 0.38-6.96-4.3-10.5zm-69.14-78.52c1.65-1.69 3.52-3.15 5.53-4.44v-15.64c-4.87 2.74-9.08 5.81-12.7 9.21 0 4.21 2.52 8.04 7.17 10.87zm55.72-7.33c0 12.16-15.96 17.98-33.94 17.98s-34.69-7.09-34.69-21.52c0-17.82 7.32-24.16 18.44-27.02v-25.01c-24.38 1.88-44.52 24.31-44.52 43.42 0 13.92 2.46 35.76 41.02 46.84 40.52 11.65 87.11-13.92 87.11-39.5 0-12.41-6.35-18.42-14.69-21.02-6.91-2.16-15.12-5.24-39.96 1.93v15.78c3.92-1.08 7.41-1.76 10.84-1.76 7.09 0 10.39 2.28 10.39 9.88zm-132.44 142.32h193.46c0-3.17-10.25-7.72-19.12-8.49-8.86-0.76-20.75-1.24-23.42-3.54-3.67-3.17-9.52-5.36-17.22-7.22-7.85-1.9-28.23-3.54-28.23-14.68v-15.47c-3.2-0.32-6.39-0.68-9.56-1.14-2.45-0.35-5.13-0.84-7.92-1.5v18.11c0 11.14-20.38 12.78-28.23 14.68-7.7 1.86-13.55 4.05-17.22 7.22-2.67 2.3-14.57 2.78-23.43 3.54s-19.11 5.32-19.11 8.49z" fill="#090"/>
  </g>
  <metadata>
    <rdf:RDF>
      <cc:Work>
        <dc:format>image/svg+xml</dc:format>
        <dc:type rdf:resource="http://purl.org/dc/dcmitype/StillImage"/>
        <cc:license rdf:resource="http://creativecommons.org/licenses/publicdomain/"/>
        <dc:publisher>
          <cc:Agent rdf:about="http://openclipart.org/">
            <dc:title>Openclipart</dc:title>
          </cc:Agent>
        </dc:publisher>
        <dc:title>Farmacia 1</dc:title>
        <dc:date>2012-05-11T05:26:06</dc:date>
        <dc:description>apotecari, apothecary, clip art, clipart, cup, farmacia, higia, higya, medecina, medicina, medicine, pharmacy, snake, symbol, </dc:description>
        <dc:source>http://openclipart.org/detail/169979/farmacia-1-by-rferran</dc:source>
        <dc:creator>
          <cc:Agent>
            <dc:title>rferran</dc:title>
          </cc:Agent>
        </dc:creator>
        <dc:subject>
          <rdf:Bag>
            <rdf:li>apotecari</rdf:li>
            <rdf:li>apothecary</rdf:li>
            <rdf:li>clip art</rdf:li>
            <rdf:li>clipart</rdf:li>
            <rdf:li>cup</rdf:li>
            <rdf:li>farmacia</rdf:li>
            <rdf:li>higia</rdf:li>
            <rdf:li>higya</rdf:li>
            <rdf:li>medecina</rdf:li>
            <rdf:li>medicina</rdf:li>
            <rdf:li>medicine</rdf:li>
            <rdf:li>pharmacy</rdf:li>
            <rdf:li>snake</rdf:li>
            <rdf:li>symbol</rdf:li>
          </rdf:Bag>
        </dc:subject>
      </cc:Work>
      <cc:License rdf:about="http://creativecommons.org/licenses/publicdomain/">
        <cc:permits rdf:resource="http://creativecommons.org/ns#Reproduction"/>
        <cc:permits rdf:resource="http://creativecommons.org/ns#Distribution"/>
        <cc:permits rdf:resource="http://creativecommons.org/ns#DerivativeWorks"/>
      </cc:License>
    </rdf:RDF>
  </metadata>
</svg>
