<?xml version="1.0" encoding="UTF-8"?>
<svg version="1.1" xmlns="http://www.w3.org/2000/svg" width="408" height="612">
<path d="M0 0 C0.78110966 -0.00367669 1.56221932 -0.00735338 2.36699897 -0.01114148 C4.98692626 -0.02216303 7.60681387 -0.02601956 10.22676086 -0.02983093 C12.10435105 -0.03609674 13.98194 -0.04274365 15.85952759 -0.04974365 C22.02790973 -0.07077255 28.19629209 -0.08114497 34.36470032 -0.09111023 C36.48929673 -0.09515823 38.61389301 -0.09927516 40.73848915 -0.10346031 C50.72042466 -0.12250942 60.70235279 -0.13674103 70.68430299 -0.14507228 C82.20151286 -0.15484396 93.71853051 -0.18116295 105.23567265 -0.22157317 C114.14112977 -0.25174606 123.04653182 -0.26654228 131.95203906 -0.26985329 C137.26929779 -0.27220243 142.58635109 -0.28114538 147.90355492 -0.30631447 C152.90800624 -0.3296206 157.91211725 -0.33381813 162.91660881 -0.32355309 C164.74954613 -0.32305823 166.58250035 -0.32936366 168.4153862 -0.34310913 C188.18682955 -0.48304148 188.18682955 -0.48304148 194.88585949 5.59455395 C198.65243116 9.75798237 199.41757088 13.2689474 199.4083252 18.70137024 C199.41000198 20.06404022 199.41000198 20.06404022 199.41171265 21.45423889 C199.40620644 22.93806061 199.40620644 22.93806061 199.40058899 24.45185852 C199.40113158 26.62259421 199.40171857 28.79332989 199.40234375 30.96406555 C199.40091558 32.11409058 199.39948742 33.2641156 199.39801598 34.44898987 C199.39450012 40.53072041 199.42028408 46.61235797 199.44087219 52.69404602 C199.46524226 60.43696355 199.48087117 68.17961106 199.4655304 75.92256165 C199.4538976 82.1778857 199.47118567 88.43254005 199.50797462 94.6877594 C199.51661148 97.07360901 199.51447729 99.45952238 199.50147057 101.84535217 C199.48465263 105.17848042 199.50469136 108.50948085 199.53340149 111.84248352 C199.51960953 112.831698 199.50581757 113.82091248 199.49160767 114.84010315 C199.53468587 117.41185226 199.6245234 119.66244086 200.29048157 122.14717102 C203.05002357 124.44246914 203.05002357 124.44246914 206.29048157 126.14717102 C211.20911839 132.47224219 210.85910343 138.55831697 210.81187439 146.34257507 C210.81792008 147.69102054 210.8257004 149.03945915 210.83505952 150.38788569 C210.85560364 154.08312822 210.85126033 157.77798232 210.84269834 161.47325659 C210.83776088 165.46247881 210.85579581 169.45160787 210.87077332 173.4407959 C210.89626347 181.25215464 210.89985521 189.06337587 210.89517279 196.8747692 C210.89160567 203.22465545 210.89510735 209.57449999 210.90362167 215.92438126 C210.90481205 216.82837745 210.90600243 217.73237364 210.90722888 218.66376365 C210.9096524 220.50028034 210.91208067 222.33679702 210.91451363 224.17331369 C210.93626327 241.39377145 210.93194032 258.61415087 210.91974394 275.83461304 C210.90940595 291.58387843 210.9319156 307.33289639 210.96994038 323.08211283 C211.00869678 339.25852885 211.02520926 355.43482782 211.01769388 371.61129057 C211.01386967 380.69110673 211.01884636 389.7707123 211.04712296 398.85049057 C211.07095224 406.58036313 211.07375904 414.30989549 211.04954262 422.03977273 C211.03776568 425.98232631 211.03556231 429.92425768 211.05954742 433.86676979 C211.0812698 437.47938523 211.07505723 441.09085924 211.04702406 444.70342131 C211.03923247 446.62212562 211.06082296 448.54088066 211.08361781 450.45946538 C210.98688972 458.19520221 209.66665437 463.41165928 204.29048157 469.14717102 C199.12930228 473.58779374 194.22459626 473.29323007 187.64964294 473.28088379 C186.76841133 473.28314935 185.88717972 473.2854149 184.97924411 473.28774911 C182.02063944 473.29408907 179.06208057 473.29325975 176.10346985 473.29243469 C173.98456259 473.29542618 171.86565587 473.29882868 169.74674988 473.3026123 C163.9864341 473.31145741 158.22613317 473.31379063 152.46581125 473.31442809 C147.65954966 473.31537691 142.85329154 473.31905489 138.04703128 473.32260019 C126.70907152 473.33074663 115.3711197 473.33318424 104.03315735 473.33247375 C92.33160705 473.33187285 80.63010283 473.34242676 68.92856419 473.35821742 C58.88685709 473.37128609 48.84516506 473.37665794 38.80344951 473.37601835 C32.80392327 473.37576317 26.80443798 473.37862534 20.8049202 473.3891964 C15.16280964 473.39886607 9.52077928 473.3989643 3.87866592 473.39167976 C1.80743289 473.39063253 -0.2638051 473.39300503 -2.3350296 473.39904022 C-5.1616853 473.40674339 -7.98806293 473.40212637 -10.81471252 473.39440918 C-11.63495183 473.39955274 -12.45519113 473.40469631 -13.30028617 473.40999573 C-17.82889963 473.38266096 -21.44300738 472.86585147 -25.70951843 471.14717102 C-25.70951843 470.48717102 -25.70951843 469.82717102 -25.70951843 469.14717102 C-26.28701843 468.96154602 -26.86451843 468.77592102 -27.45951843 468.58467102 C-30.80826539 466.4451938 -32.37678031 463.80229542 -33.70951843 460.14717102 C-34.29596881 455.73124315 -34.25349054 451.34978146 -34.22418213 446.90034485 C-34.22951108 445.5463501 -34.23657879 444.19236128 -34.24522918 442.83838367 C-34.26383731 439.12786952 -34.25755808 435.41775499 -34.24707615 431.70722437 C-34.24007895 427.70168753 -34.25608595 423.69623236 -34.26907349 419.6907196 C-34.2907095 411.84794 -34.29058772 404.00530551 -34.28244794 396.16250587 C-34.27614709 389.78829023 -34.27728576 383.41411692 -34.28372002 377.03990173 C-34.28462167 376.13255274 -34.28552333 375.22520374 -34.2864523 374.29035932 C-34.28830351 372.44707416 -34.29016607 370.60378902 -34.29203986 368.76050389 C-34.30861673 351.47762954 -34.29989986 334.19483684 -34.28305428 316.9119674 C-34.26835517 301.09994618 -34.28298889 285.28811495 -34.31182445 269.47611821 C-34.34121528 253.23869386 -34.35219179 237.00135721 -34.34264225 220.76390743 C-34.3416197 218.92741841 -34.34062509 217.09092936 -34.33965874 215.25444031 C-34.33918235 214.35086204 -34.33870596 213.44728377 -34.33821513 212.51632434 C-34.33605071 206.15004485 -34.34585649 199.78384836 -34.36042976 193.41758728 C-34.37794312 185.65877316 -34.37785003 177.90020132 -34.35507811 170.14139676 C-34.34392714 166.18296163 -34.34079241 162.22495352 -34.35937881 158.26653671 C-34.37617946 154.64180424 -34.36983941 151.01787137 -34.34516203 147.39319074 C-34.33796511 145.46307973 -34.35531421 143.53292522 -34.37357336 141.60288715 C-34.29640843 134.44565163 -33.72570208 130.4041564 -28.70951843 125.14717102 C-27.79073914 124.67642151 -26.87195984 124.205672 -25.92533875 123.72065735 C-25.19411804 123.20140686 -24.46289734 122.68215637 -23.70951843 122.14717102 C-23.25895195 119.2242705 -23.14985847 116.88857525 -23.25639343 113.97138977 C-23.26629303 113.12228027 -23.27619263 112.27317078 -23.28639221 111.39833069 C-23.31030483 109.53147534 -23.34537676 107.66473871 -23.38999939 105.79826355 C-23.51053034 100.66003651 -23.54390415 95.52086812 -23.59233093 90.38154602 C-23.61153091 88.71502235 -23.61153091 88.71502235 -23.63111877 87.01483154 C-23.77120296 73.59874758 -23.60169765 60.18802922 -23.39616394 46.77354431 C-23.34332762 43.29521414 -23.30214072 39.81685099 -23.26379967 36.33833504 C-23.2254113 33.08568678 -23.17366084 29.83325083 -23.12358093 26.58076477 C-23.11204987 25.39625732 -23.1005188 24.21174988 -23.08863831 22.99134827 C-23.06874847 21.89735718 -23.04885864 20.80336609 -23.02836609 19.67622375 C-23.01504242 18.7246489 -23.00171875 17.77307404 -22.98799133 16.79266357 C-22.43738002 11.56185606 -20.23435021 7.97413124 -16.70951843 4.14717102 C-11.21651819 0.30207085 -6.56961146 -0.00166082 0 0 Z M-13.70951843 13.14717102 C-14.85036866 15.94025219 -14.83335839 18.61696696 -14.82977295 21.61439514 C-14.83115045 22.50154079 -14.83252794 23.38868645 -14.83394718 24.3027153 C-14.83034907 25.27200092 -14.82675097 26.24128654 -14.82304382 27.23994446 C-14.82316436 28.28120609 -14.82328489 29.32246773 -14.82340908 30.39528275 C-14.82266271 33.76572557 -14.81504697 37.13611309 -14.80717468 40.50654602 C-14.80570441 42.58743768 -14.80468422 44.6683297 -14.80412292 46.7492218 C-14.79887993 54.46521051 -14.78491874 62.18119131 -14.77201843 69.89717102 C-14.75139343 87.13967102 -14.73076843 104.38217102 -14.70951843 122.14717102 C53.27048157 122.14717102 121.25048157 122.14717102 191.29048157 122.14717102 C191.33173157 105.09029602 191.37298157 88.03342102 191.41548157 70.45967102 C191.43368958 65.07565979 191.45189758 59.69164856 191.47065735 54.14448547 C191.47734658 49.31461462 191.47734658 49.31461462 191.48136902 44.48474121 C191.48443841 42.33495252 191.49146886 40.18516725 191.50163269 38.03540039 C191.5162648 34.77743047 191.51829379 31.51967081 191.51753235 28.26167297 C191.52832667 26.82719425 191.52832667 26.82719425 191.53933907 25.36373615 C191.52157291 19.68805339 191.22045669 15.69860668 187.70151615 11.0465517 C184.40176283 8.44705032 181.50570944 8.59065763 177.4781189 8.63923645 C176.68601987 8.63299649 175.89392084 8.62675653 175.07781881 8.62032747 C172.4206214 8.60435825 169.76433635 8.61701677 167.10713196 8.6295929 C165.20334334 8.62417347 163.29955892 8.61705182 161.39578247 8.60835266 C156.2221906 8.59009382 151.04891727 8.59719777 145.87531972 8.609869 C140.46441736 8.61998486 135.05354257 8.61060712 129.64263916 8.60432434 C120.55425615 8.59704319 111.46600307 8.60664727 102.37763977 8.62568665 C91.86772494 8.64744969 81.35812055 8.64040995 70.84821326 8.61838102 C61.82899379 8.60023256 52.80986783 8.59766621 43.790636 8.6081357 C38.40199885 8.6143745 33.01350763 8.61519572 27.62487984 8.60198975 C22.55801417 8.59044021 17.49154887 8.59844073 12.42472649 8.62156677 C10.56432638 8.62685892 8.70389261 8.62533145 6.84350586 8.61651611 C4.30515734 8.6055967 1.76809433 8.61927991 -0.77017212 8.63923645 C-1.5077234 8.63031356 -2.24527469 8.62139068 -3.00517601 8.6121974 C-7.82511688 8.68578026 -10.40992683 9.60491435 -13.70951843 13.14717102 Z M-24.70951843 134.14717102 C-25.49314698 137.35433551 -25.49314698 137.35433551 -25.40873718 140.95967102 C-25.41589249 141.61040588 -25.42304779 142.26114075 -25.43041992 142.93159485 C-25.43818161 144.30324437 -25.4332166 145.67501785 -25.41630554 147.04658508 C-25.39706239 149.14238377 -25.43646905 151.23155738 -25.48100281 153.32685852 C-25.48129318 154.66279995 -25.47815291 155.99874745 -25.47123718 157.33467102 C-25.47083435 158.54510071 -25.47043152 159.7555304 -25.47001648 161.00263977 C-24.98745921 164.32936191 -24.98745921 164.32936191 -22.21232605 166.31195831 C-17.85472037 168.59502213 -14.73742663 168.70827734 -9.90409851 168.65510559 C-9.02932515 168.66134555 -8.15455179 168.66758552 -7.25327015 168.67401457 C-4.3282541 168.6899424 -1.40407161 168.67734109 1.52095032 168.66474915 C3.62045273 168.67017035 5.71995134 168.677293 7.81944275 168.68598938 C13.51775056 168.70422573 19.2157687 168.69715377 24.91408157 168.68447304 C30.87703991 168.67434707 36.83997343 168.6837376 42.80293274 168.6900177 C52.8167313 168.69729526 62.83041186 168.68770348 72.8441925 168.6686554 C84.42202937 168.64688654 95.99958448 168.65393782 107.57741451 168.67596102 C117.51727428 168.69411184 127.45704922 168.69667486 137.3969202 168.68620634 C143.33384889 168.67996971 149.27064513 168.67914058 155.20756531 168.69235229 C160.78907335 168.70390545 166.37021807 168.69589449 171.95168686 168.67277527 C174.00033846 168.66748537 176.04902062 168.66900673 178.09766006 168.67782593 C180.89387363 168.68875371 183.68892234 168.67505111 186.48506165 168.65510559 C187.7017014 168.66848992 187.7017014 168.66848992 188.94291973 168.68214464 C194.13507166 168.61028607 197.22581926 167.67519679 201.29048157 164.14717102 C202.1628086 160.92843967 202.1628086 160.92843967 201.98188782 157.29951477 C201.97982582 156.31985497 201.97982582 156.31985497 201.97772217 155.32040405 C201.96868566 153.94437738 201.94511644 152.56837865 201.90791321 151.19282532 C201.85305032 149.08730968 201.84638466 146.98574948 201.84712219 144.8795929 C202.17987226 138.23794804 202.17987226 138.23794804 199.94648743 132.28999329 C195.91381116 129.50701266 191.48479064 129.99895259 186.8011322 130 C185.924133 129.99632331 185.0471338 129.99264662 184.14355886 129.98885852 C181.19334103 129.97781082 178.24315841 129.97397603 175.29292297 129.97016907 C173.18239225 129.96390536 171.07186263 129.95725865 168.96133423 129.95025635 C163.21962757 129.93284095 157.47792924 129.92229364 151.73620272 129.91405082 C148.15127066 129.90890302 144.5663412 129.90282726 140.98141098 129.89653969 C129.77142729 129.87748822 118.56145019 129.86325559 107.35145342 129.85492772 C94.39886031 129.84514699 81.44643771 129.81880539 68.49390471 129.77842683 C58.4896011 129.74830588 48.48534649 129.73346277 38.4809984 129.73014671 C32.50210853 129.72779212 26.52340083 129.71877822 20.54455948 129.69368553 C14.92210053 129.67046944 9.29994456 129.66614556 3.67745018 129.67644691 C1.61223915 129.67694392 -0.45298648 129.67057525 -2.51815224 129.65689087 C-5.33453523 129.63927053 -8.14981918 129.64622937 -10.96620178 129.65942383 C-11.7861451 129.64845458 -12.60608842 129.63748534 -13.4508785 129.62618369 C-18.47530722 129.68313492 -21.26762202 130.41011478 -24.70951843 134.14717102 Z M-24.70951843 175.14717102 C-24.85515818 225.50164232 -24.85515818 225.50164232 -24.95365906 275.8561554 C-24.96344869 282.64090535 -24.97355117 289.42565474 -24.98417664 296.21040344 C-24.98549538 297.06078223 -24.98681412 297.91116103 -24.98817283 298.78730887 C-25.00993003 312.5229757 -25.04935491 326.25853806 -25.09528241 339.99414291 C-25.14201057 354.08654519 -25.16980611 368.17889271 -25.17996091 382.27136928 C-25.18682765 390.96993947 -25.20852922 399.66821453 -25.24910077 408.36669389 C-25.27549423 414.32845713 -25.28352718 420.29006739 -25.27702532 426.25188484 C-25.27381705 429.69363469 -25.27879611 433.13486819 -25.30554581 436.57652664 C-25.33031805 440.30615402 -25.32447962 444.034505 -25.31079102 447.76416016 C-25.32535522 448.85462527 -25.33991943 449.94509037 -25.35492498 451.06859988 C-25.31225158 457.1202385 -25.31225158 457.1202385 -22.3594389 462.2961092 C-17.82242638 465.4653706 -13.78557494 465.2933841 -8.4546814 465.28761292 C-7.60288907 465.29058404 -6.75109675 465.29355516 -5.87349254 465.29661632 C-3.00852191 465.305314 -0.14359302 465.30681247 2.72138977 465.30830383 C4.7711852 465.31293124 6.82097976 465.31795579 8.87077332 465.323349 C14.44726664 465.33648218 20.02374792 465.34291971 25.6002543 465.34735966 C29.08267838 465.3502888 32.56509917 465.3543933 36.04752159 465.35886383 C46.93874958 465.37254095 57.82997003 465.38220666 68.72120601 465.38606572 C81.30190608 465.39054766 93.88249758 465.40810099 106.46316463 465.43706632 C116.18213669 465.45866778 125.90107816 465.46876918 135.62007397 465.47010684 C141.42737479 465.47115593 147.23457356 465.47708602 153.04184914 465.49492645 C158.50422511 465.51138061 163.96642204 465.51357551 169.42881393 465.50478745 C171.43393495 465.50401566 173.43906548 465.50837838 175.44416237 465.5182457 C178.1812203 465.53092539 180.91764031 465.52511002 183.6546936 465.5146637 C184.84522078 465.5267483 184.84522078 465.5267483 186.05979902 465.53907704 C191.58285577 465.48976827 195.49926996 464.36284399 199.9328953 460.84341758 C201.74357651 458.58104807 201.66343214 457.22212093 201.65962505 454.34269428 C201.6655982 453.34743679 201.67157134 452.3521793 201.67772549 451.3267625 C201.66898697 450.23047171 201.66024845 449.13418091 201.65124512 448.00466919 C201.65380839 446.84237704 201.65637167 445.6800849 201.65901262 444.48257178 C201.66310803 441.25116917 201.65370084 438.02012523 201.63867843 434.78876507 C201.62574785 431.30616765 201.63010541 427.82358757 201.63238525 424.3409729 C201.63395988 418.30538766 201.62453096 412.26989956 201.60767174 406.23433876 C201.58331188 397.50789965 201.57547956 388.78150761 201.57170776 380.05503818 C201.56513854 365.89765282 201.54516462 351.74031926 201.51679993 337.58296204 C201.48927154 323.82873286 201.46806638 310.07451782 201.45527649 296.32026672 C201.4544725 295.46409986 201.4536685 294.60793299 201.45284015 293.72582167 C201.44660204 287.03023919 201.44073121 280.3346564 201.43497646 273.63907349 C201.40666487 240.8083918 201.34631252 207.97783973 201.29048157 175.14717102 C126.71048157 175.14717102 52.13048157 175.14717102 -24.70951843 175.14717102 Z " fill="#3B3B3B" transform="translate(115.70951843261719,61.85282897949219)"/>
<path d="M0 0 C1.09066772 -0.00852997 2.18133545 -0.01705994 3.30505371 -0.02584839 C5.09273666 -0.02448883 5.09273666 -0.02448883 6.91653442 -0.02310181 C8.80490021 -0.03317764 8.80490021 -0.03317764 10.73141479 -0.04345703 C14.18190344 -0.06111345 17.63229287 -0.06581225 21.08282232 -0.0670886 C23.23975625 -0.06851098 25.39666501 -0.07278222 27.55359268 -0.07808304 C35.0818161 -0.09658222 42.60996872 -0.10475381 50.13821411 -0.10317993 C57.15015836 -0.10197859 64.16179476 -0.12307944 71.17366111 -0.15466726 C77.19842882 -0.18083886 83.22309605 -0.19154686 89.24792016 -0.19026911 C92.84421178 -0.18975973 96.4402298 -0.1954295 100.03646469 -0.21662521 C104.04878454 -0.23962799 108.0604168 -0.23048143 112.07278442 -0.21841431 C113.2605246 -0.22965332 114.44826477 -0.24089233 115.67199707 -0.25247192 C123.48723815 -0.19266946 127.30714824 1.00044797 132.96670532 6.57481384 C135.09271815 10.02884089 135.13133668 12.3057124 135.14163208 16.34921265 C135.14864136 17.0425621 135.15565063 17.73591156 135.16287231 18.45027161 C135.18041383 20.73218364 135.16884331 23.0128456 135.15530396 25.29476929 C135.15800032 26.88750953 135.16188394 28.48024816 135.16690063 30.07298279 C135.17279069 33.40773218 135.1642502 36.74205232 135.14553833 40.07675171 C135.12276711 44.34178123 135.13586259 48.60580282 135.15982819 52.87079525 C135.17431564 56.15919013 135.16966647 59.44734799 135.15931702 62.7357502 C135.15665688 64.30775638 135.15989433 65.87978438 135.16923523 67.45176506 C135.17944808 69.65383351 135.16383613 71.85429451 135.14163208 74.0562439 C135.13844971 75.30691147 135.13526733 76.55757904 135.13198853 77.84614563 C134.36136509 83.03681115 132.33091012 85.98722008 128.15652466 89.11816406 C122.8205154 90.85419258 117.68173101 90.68419999 112.10452271 90.65560913 C110.21571884 90.66349457 110.21571884 90.66349457 108.28875732 90.67153931 C104.84658204 90.68517684 101.40467752 90.67992919 97.96249771 90.67040205 C94.3538263 90.66278688 90.74517749 90.66985621 87.13650513 90.67456055 C81.07729954 90.68001271 75.01820379 90.67284071 68.95901489 90.65853882 C61.96183692 90.64221326 54.96492122 90.64750216 47.9677496 90.66401803 C41.95142598 90.67764834 35.93518115 90.67954504 29.91884708 90.67170203 C26.32935858 90.66703397 22.7399932 90.66637666 19.1505127 90.67631149 C15.14804648 90.68661631 11.14602977 90.67231866 7.14358521 90.65560913 C5.95898712 90.66168182 4.77438904 90.66775452 3.55389404 90.67401123 C-6.5818678 90.59559358 -6.5818678 90.59559358 -11.37594604 87.26742554 C-17.80754006 79.9666972 -16.52680772 69.85127548 -16.50875854 60.65414429 C-16.50971527 59.56334061 -16.510672 58.47253693 -16.51165771 57.34867859 C-16.51233501 55.05181826 -16.51051231 52.75495597 -16.50631714 50.45809937 C-16.50097817 46.97587699 -16.50626954 43.49378449 -16.51266479 40.01156616 C-16.51200363 37.76742526 -16.51072168 35.52328443 -16.50875854 33.27914429 C-16.51078278 32.25375046 -16.51280701 31.22835663 -16.51489258 30.17189026 C-16.49853993 25.03029004 -16.3618442 19.90676667 -16.04342651 14.77450562 C-15.98444183 13.81699905 -15.92545715 12.85949249 -15.86468506 11.87297058 C-15.06969389 7.63474683 -12.71770967 4.88135774 -9.37594604 2.26742554 C-6.15606571 0.32843569 -3.73754205 0.01322559 0 0 Z M-6.1779747 11.62283897 C-7.60306619 14.76880554 -7.75027367 17.01425272 -7.7482605 20.46298218 C-7.75448929 21.69098038 -7.76071808 22.91897858 -7.76713562 24.18418884 C-7.75792587 25.50200851 -7.74871613 26.81982819 -7.73922729 28.17758179 C-7.73870822 29.5509084 -7.73922775 30.92423576 -7.74073792 32.29756165 C-7.74064839 35.16987256 -7.73025916 38.04190163 -7.71212769 40.91415405 C-7.68941958 44.59174674 -7.68890237 48.26892876 -7.69564533 51.9465723 C-7.69898976 54.78019345 -7.69234668 57.61372132 -7.6825161 60.44732475 C-7.67680854 62.46141159 -7.67809832 64.47551432 -7.67948914 66.48960876 C-7.66995712 67.7144548 -7.66042511 68.93930084 -7.65060425 70.20126343 C-7.64599686 71.2787233 -7.64138947 72.35618317 -7.63664246 73.46629333 C-7.37037464 76.3272892 -7.02691158 77.92942784 -5.37594604 80.26742554 C-2.26985484 82.19955357 0.12170314 82.51983422 3.74771118 82.52812195 C4.78237015 82.53520676 5.81702911 82.54229156 6.88304138 82.54959106 C8.57725471 82.54587494 8.57725471 82.54587494 10.30569458 82.54208374 C12.09646675 82.54975014 12.09646675 82.54975014 13.92341614 82.55757141 C17.19405211 82.56908861 20.46453089 82.57154128 23.73518181 82.56900811 C26.46639068 82.56793796 29.19757621 82.57282278 31.92878008 82.57761353 C38.37165609 82.58870497 44.8144738 82.58914788 51.25735474 82.58309937 C57.90347676 82.57705603 64.54938726 82.5893804 71.19547319 82.61066943 C76.90343847 82.62828094 82.61133638 82.6342876 88.31932783 82.63103169 C91.72770916 82.62921829 95.13593954 82.63186068 98.54429626 82.64574623 C102.34383583 82.65804436 106.14288201 82.65135857 109.94241333 82.63973999 C111.07188889 82.64738373 112.20136444 82.65502747 113.36506653 82.66290283 C114.39972549 82.65588852 115.43438446 82.64887421 116.50039673 82.64164734 C117.8476395 82.64189895 117.8476395 82.64189895 119.2220993 82.64215565 C122.13523999 82.18767516 123.50349549 81.28997658 125.62405396 79.26742554 C126.84292671 74.80437732 126.75290429 70.32684684 126.75686646 65.72055054 C126.75898132 64.63902206 126.75898132 64.63902206 126.76113892 63.53564453 C126.76326783 61.19618783 126.75699155 58.85686846 126.74905396 56.51742554 C126.74750305 55.72128845 126.74595215 54.92515137 126.74435425 54.10488892 C126.72000077 43.44689667 126.60190513 32.79517053 126.24905396 22.14242554 C126.21827759 21.0599353 126.18750122 19.97744507 126.15579224 18.8621521 C126.11695923 17.87956421 126.07812622 16.89697632 126.03811646 15.88461304 C126.00669556 15.03495972 125.97527466 14.1853064 125.94290161 13.30990601 C125.79496851 11.0452861 125.79496851 11.0452861 123.62405396 9.26742554 C121.29194987 8.95450057 121.29194987 8.95450057 118.5443573 8.99327087 C117.46893173 8.98329575 116.39350616 8.97332062 115.28549194 8.96304321 C114.1005011 8.96237854 112.91551025 8.96171387 111.6946106 8.96102905 C110.45068039 8.95270554 109.20675018 8.94438202 107.92512512 8.93580627 C104.50772701 8.91579658 101.09057289 8.90505804 97.67313695 8.89997983 C95.53935316 8.89634056 93.40559297 8.8901028 91.27181816 8.88297844 C83.83135825 8.8584731 76.39096818 8.84542951 68.95046997 8.84188843 C62.00888073 8.83825123 55.06773313 8.80834598 48.12627894 8.76648384 C42.17123615 8.73182623 36.21634004 8.71634079 30.26119703 8.71564239 C26.70234403 8.71484807 23.14394075 8.70603957 19.58519173 8.67764473 C15.61758326 8.64669623 11.65061318 8.65550204 7.68289185 8.6680603 C6.49992523 8.65322601 5.31695862 8.63839172 4.09814453 8.62310791 C3.01989914 8.63287155 1.94165375 8.64263519 0.83073425 8.6526947 C-0.10781875 8.65068337 -1.04637175 8.64867205 -2.01336575 8.64659977 C-4.60661351 9.06969232 -4.60661351 9.06969232 -6.1779747 11.62283897 Z " fill="#393939" transform="translate(144.37594604492188,77.73257446289063)"/>
</svg>
