<?xml version="1.0" encoding="UTF-8"?>
<svg version="1.1" xmlns="http://www.w3.org/2000/svg" width="233" height="374">
<path d="M0 0 C0.8046474 -0.00850552 1.60929481 -0.01701104 2.43832546 -0.0257743 C5.12624919 -0.04800466 7.81278331 -0.03461957 10.50074768 -0.02119446 C12.43114715 -0.02960941 14.3615384 -0.04013532 16.29191589 -0.0526123 C21.52961257 -0.07967063 26.7668331 -0.07495678 32.00456882 -0.06291175 C36.37841946 -0.05578115 40.752182 -0.06427926 45.12602574 -0.07281715 C55.44486136 -0.09277223 65.76346532 -0.08719693 76.08229065 -0.06513977 C86.72524343 -0.04277622 97.36758965 -0.06037411 108.01048511 -0.09818906 C117.15123886 -0.12942533 126.29180486 -0.13733818 135.43260533 -0.12623531 C140.89066017 -0.11974825 146.34836499 -0.12175066 151.80637932 -0.14555931 C156.93909514 -0.16680882 162.0709552 -0.15883653 167.2036171 -0.12846565 C169.0857553 -0.12213733 170.96795992 -0.12600129 172.85004997 -0.14087677 C175.42314788 -0.15956321 177.99344753 -0.14114528 180.56640625 -0.11352539 C181.67945756 -0.13462507 181.67945756 -0.13462507 182.81499475 -0.156151 C188.10406751 -0.04201245 190.74493503 1.63312817 194.46743608 5.08683175 C198.81225486 9.98467372 198.11332321 16.44419547 198.05445862 22.59086609 C198.05326019 23.57696869 198.05206177 24.56307129 198.05082703 25.57905579 C198.04768407 27.71358691 198.04038818 29.84811511 198.02939415 31.98262024 C198.01451834 35.36216959 198.0161464 38.74132415 198.02304077 42.12089539 C198.04185915 51.72722377 198.04822606 61.33324278 198.00123596 70.9394989 C197.9736562 76.82110908 197.97995321 82.70185488 198.00824928 88.58345032 C198.01251025 90.8225374 198.0040254 93.06168659 197.98251915 95.30067444 C197.95366983 98.43223617 197.96794046 101.56088875 197.99195862 104.69242859 C197.97300034 105.61520599 197.95404205 106.5379834 197.93450928 107.48872375 C198.00142593 112.40037723 198.00142593 112.40037723 200.42698097 116.51820374 C202.29321386 118.14992589 202.29321386 118.14992589 204.24783802 119.48361206 C205.84669495 120.64164734 205.84669495 120.64164734 206.84669495 122.64164734 C206.9442473 123.98464265 206.98125168 125.33230483 206.98650265 126.67882824 C206.99219389 127.52844196 206.99788513 128.37805569 207.00374883 129.25341529 C207.00492871 130.19220615 207.00610859 131.13099701 207.00732422 132.09823608 C207.01241204 133.09139275 207.01749986 134.08454941 207.02274185 135.10780174 C207.03851883 138.45721692 207.04700521 141.80661045 207.05543518 145.15605164 C207.06496939 147.54890075 207.07486035 149.94174846 207.08508301 152.33459473 C207.11380296 159.53147292 207.13355723 166.7283574 207.15047535 173.92527053 C207.1552698 175.95785597 207.1602532 177.99044087 207.16528058 180.02302575 C207.19625273 192.64339765 207.2229401 205.26377413 207.23969936 217.88417339 C207.24364891 220.80813289 207.2476519 223.73209231 207.25172424 226.65605164 C207.2527326 227.38279446 207.25374097 228.10953729 207.25477988 228.85830263 C207.27178399 240.62909554 207.31288922 252.39967811 207.36374723 264.17036834 C207.4155267 276.25368743 207.44464209 288.33689837 207.45189625 300.42032748 C207.4565583 307.20532382 207.47130661 313.9899758 207.51164055 320.77486229 C207.54844484 327.15825152 207.55693644 333.54105269 207.54363441 339.92452812 C207.54368847 342.26788431 207.55402604 344.61126615 207.57538605 346.95452499 C207.60299049 350.1537766 207.59359184 353.35087215 207.57495117 356.55014038 C207.5917461 357.47777764 207.60854103 358.40541489 207.6258449 359.36116236 C207.54152536 365.15106272 206.36687025 368.17691265 202.32890469 372.36752063 C198.77310777 375.42412976 194.86149304 374.79598425 190.41513062 374.80227661 C189.09077949 374.80990834 189.09077949 374.80990834 187.73967379 374.81769425 C184.76338624 374.83346572 181.78712305 374.84195616 178.81080627 374.85038757 C176.68396346 374.85992225 174.55712222 374.86981324 172.43028259 374.8800354 C165.42978262 374.91146528 158.4292706 374.93169229 151.4287262 374.95024109 C149.64361212 374.95518707 149.64361212 374.95518707 147.82243514 374.96023297 C136.6033868 374.99101582 125.38433584 375.01773 114.16525745 375.03465176 C99.80315829 375.05656608 85.44143266 375.09854747 71.07948285 375.16808933 C60.98769894 375.21529926 50.89601591 375.23958135 40.80412501 375.24684864 C34.77363317 375.25180949 28.74356196 375.26693213 22.71319008 375.30659294 C17.03893029 375.34341894 11.36533209 375.35188188 5.69097519 375.33858681 C3.60885028 375.33864082 1.52669636 375.34896428 -0.55531883 375.37033844 C-3.39995338 375.3979793 -6.24216841 375.38852974 -9.08682251 375.36990356 C-9.90940416 375.38669849 -10.73198581 375.40349342 -11.57949418 375.42079729 C-17.07011758 375.33105155 -19.86090119 373.89724421 -23.84314233 370.12385708 C-26.06968662 367.60492903 -26.27956652 365.88451689 -26.28752613 362.6172905 C-26.29198397 361.77054347 -26.29644182 360.92379644 -26.30103475 360.05139041 C-26.30085039 359.11580837 -26.30066602 358.18022634 -26.30047607 357.21629333 C-26.30415276 356.22651466 -26.30782945 355.23673598 -26.31161755 354.21696401 C-26.32268721 350.87902778 -26.32650378 347.54112264 -26.33030701 344.20317078 C-26.33656915 341.81855164 -26.34321573 339.43393348 -26.35021973 337.04931641 C-26.36947153 329.87764964 -26.38005157 322.70598226 -26.38894752 315.53429687 C-26.39332933 312.15796242 -26.39869643 308.78162954 -26.40393639 305.40529633 C-26.42094984 294.18302104 -26.43544416 282.96074674 -26.44268513 271.73846054 C-26.44459506 268.82549285 -26.44651539 265.91252516 -26.44847107 262.9995575 C-26.44895481 262.27554297 -26.44943855 261.55152845 -26.44993695 260.80557409 C-26.45823779 249.07619354 -26.48357505 237.34691497 -26.51605175 225.61757895 C-26.54911504 213.57833249 -26.56713324 201.53913785 -26.57032937 189.49984574 C-26.57249521 182.73900167 -26.58125441 175.97830626 -26.60679054 169.21750641 C-26.63001307 162.85801125 -26.63432781 156.49878395 -26.62402916 150.13925743 C-26.62353228 147.80355884 -26.62989721 145.46784733 -26.64358521 143.1321888 C-26.66121399 139.94611421 -26.65424179 136.7610103 -26.64105225 133.57493591 C-26.65202149 132.64827677 -26.66299074 131.72161762 -26.67429239 130.76687789 C-26.61894832 125.23834891 -25.90105426 121.99256546 -22.15330505 117.64164734 C-19.15330505 115.64164734 -19.15330505 115.64164734 -16.15330505 115.64164734 C-16.31498169 114.51795242 -16.47665833 113.39425751 -16.64323425 112.23651123 C-17.22913763 107.52255281 -17.30818636 102.86931091 -17.31443787 98.12382507 C-17.31940277 97.20731171 -17.32436768 96.29079834 -17.32948303 95.34651184 C-17.34399145 92.33941375 -17.35088538 89.3323683 -17.35643005 86.32524109 C-17.35925743 85.2932213 -17.36208481 84.26120152 -17.36499786 83.1979084 C-17.3799397 77.74336113 -17.38920249 72.28883999 -17.39353943 66.83427429 C-17.39903636 61.20989591 -17.42310447 55.58575811 -17.45151138 49.96145535 C-17.47015018 45.62481994 -17.47534389 41.28824258 -17.47687531 36.95157051 C-17.47989631 34.87798297 -17.48790616 32.80439633 -17.50106049 30.73084831 C-17.51815714 27.83040407 -17.51623255 24.93054957 -17.50975037 22.03007507 C-17.51896515 21.1794902 -17.52817993 20.32890533 -17.53767395 19.45254517 C-17.49117611 12.79486213 -16.37055286 7.90593436 -11.54709148 2.98014259 C-7.9564143 0.11195091 -4.46956239 -0.06288483 0 0 Z M-7.10523701 10.9008894 C-8.4021705 13.05499311 -8.52333222 14.36428548 -8.5140686 16.87472534 C-8.51820109 17.73530391 -8.52233358 18.59588247 -8.5265913 19.48253918 C-8.51579698 20.42731782 -8.50500265 21.37209646 -8.49388123 22.34550476 C-8.49424283 23.3569093 -8.49460443 24.36831385 -8.494977 25.41036701 C-8.49273495 28.68948361 -8.46987569 31.96809082 -8.4462738 35.24711609 C-8.44186387 37.26945245 -8.43880277 39.29179222 -8.43711853 41.31413269 C-8.42137931 48.81918974 -8.37949578 56.32417352 -8.34080505 63.82914734 C-8.27893005 80.59727234 -8.21705505 97.36539734 -8.15330505 114.64164734 C56.85669495 114.64164734 121.86669495 114.64164734 188.84669495 114.64164734 C188.90856995 97.87352234 188.97044495 81.10539734 189.03419495 63.82914734 C189.06150696 58.53134216 189.08881897 53.23353699 189.11695862 47.77519226 C189.12699089 43.03310687 189.12699089 43.03310687 189.13302612 38.29101562 C189.13763788 36.17612822 189.14819938 34.06124878 189.16342163 31.94641113 C189.18530959 28.74596924 189.18841539 25.54601004 189.18727112 22.34550476 C189.19806544 21.40072612 189.20885977 20.45594748 189.21998119 19.48253918 C189.2158487 18.62196061 189.21171621 17.76138205 189.2074585 16.87472534 C189.21022388 16.12530765 189.21298925 15.37588995 189.21583843 14.60376263 C188.95571743 12.59390812 188.95571743 12.59390812 187.7986269 10.9008894 C184.78925679 8.95946649 181.72161892 9.22902043 178.25502014 9.26069641 C177.47461506 9.25601644 176.69420999 9.25133647 175.89015627 9.24651468 C173.26677396 9.23451803 170.64390955 9.24403995 168.02052307 9.25346375 C166.14319554 9.24940011 164.26587039 9.24405941 162.3885498 9.23753357 C157.28325756 9.22382937 152.1781467 9.22917141 147.07285118 9.23867083 C141.73708472 9.24625137 136.40133407 9.23922629 131.06556702 9.23451233 C122.1040721 9.22905009 113.14265128 9.23625868 104.1811676 9.25053406 C93.81158462 9.26686145 83.44217858 9.26157327 73.07259989 9.24505484 C64.17913244 9.23145332 55.28571835 9.22951378 46.39224386 9.23737085 C41.07633659 9.24205471 35.76051256 9.24265267 30.4446106 9.23276138 C25.44759374 9.22411339 20.45080563 9.23007388 15.45381355 9.24744415 C13.61675967 9.25142061 11.77968664 9.25025524 9.9426403 9.24365616 C7.44095437 9.23549617 4.94000815 9.24569446 2.43836975 9.26069641 C1.70598351 9.25400425 0.97359727 9.24731208 0.21901751 9.24041712 C-2.63234409 9.27373826 -4.67359013 9.33217077 -7.10523701 10.9008894 Z M-17.14899445 124.98749352 C-19.76581054 129.29753098 -18.66302489 135.70707922 -18.65330505 140.57914734 C-18.68166443 141.86756531 -18.7100238 143.15598328 -18.73924255 144.48344421 C-18.74182068 145.72029968 -18.7443988 146.95715515 -18.74705505 148.23149109 C-18.7541449 149.36449646 -18.76123474 150.49750183 -18.76853943 151.6648407 C-18.39946058 154.75192849 -18.39946058 154.75192849 -16.14428043 156.79595184 C-12.29702053 159.17005038 -9.06603606 159.19896688 -4.6824646 159.14958191 C-3.83163585 159.15582187 -2.9808071 159.16206183 -2.10419565 159.16849089 C0.74568355 159.18444087 3.59470984 159.17180889 6.44459534 159.15922546 C8.48808288 159.16464565 10.53156651 159.17176772 12.57504272 159.1804657 C18.12452233 159.19871306 23.67370474 159.19162588 29.22318959 159.17894936 C35.02693442 159.16883045 40.8306536 159.17821182 46.63439941 159.18449402 C56.3800972 159.19177306 66.12567376 159.18217531 75.87135315 159.16313171 C87.14531158 159.14135645 98.41898075 159.14841817 109.69293219 159.17043734 C119.36692601 159.18857668 129.04083264 159.191157 138.71483797 159.18068266 C144.49522326 159.17444047 150.27547248 159.1736322 156.05584908 159.18682861 C161.48878111 159.19836532 166.92133932 159.19040112 172.35423088 159.16725159 C174.35050714 159.16195311 176.34681474 159.16349763 178.34307861 159.17230225 C181.06342618 159.18319623 183.78256789 159.16956897 186.50283813 159.14958191 C187.29709342 159.1585048 188.0913487 159.16742768 188.90967232 159.17662096 C192.43968151 159.12614094 194.46274631 158.9262313 197.33682919 156.79595184 C199.40177279 153.84965197 199.34864041 151.80943228 199.3427887 148.23149109 C199.34375549 146.37620789 199.34375549 146.37620789 199.34474182 144.48344421 C199.32476135 143.19502625 199.30478088 141.90660828 199.28419495 140.57914734 C199.29128479 139.28686218 199.29837463 137.99457703 199.30567932 136.66313171 C199.61397681 130.59358041 199.61397681 130.59358041 197.84337616 124.98749352 C194.65119989 122.83583396 191.21620331 123.229966 187.4957428 123.26069641 C186.63366667 123.25601644 185.77159055 123.25133647 184.8833909 123.24651468 C181.9836344 123.234512 179.0843459 123.24404245 176.18458557 123.25346375 C174.1102165 123.24940039 172.0358496 123.24405984 169.96148682 123.23753357 C164.31902729 123.22382615 158.67673183 123.22917277 153.03426933 123.23867083 C147.13795901 123.24624969 141.24166303 123.23922676 135.34535217 123.23451233 C125.44229095 123.2290496 115.53929678 123.23625997 105.63624573 123.25053406 C94.17603701 123.26686153 82.71598839 123.26157339 71.25578356 123.24505484 C61.42814272 123.23145472 51.60055017 123.2295131 41.77290297 123.23737085 C35.89808495 123.24205548 30.02334227 123.24265056 24.14852905 123.23276138 C18.62622368 123.22411544 13.10412535 123.23007019 7.58184242 123.24744415 C5.5512813 123.2514217 3.52070285 123.25025341 1.49014854 123.24365616 C-1.27425638 123.23550057 -4.03799109 123.24568946 -6.80235291 123.26069641 C-8.01766072 123.25065816 -8.01766072 123.25065816 -9.2575202 123.24041712 C-13.44097848 123.25739668 -13.44097848 123.25739668 -17.14899445 124.98749352 Z M-18.15330505 165.64164734 C-18.23580505 198.06414734 -18.31830505 230.48664734 -18.40330505 263.89164734 C-18.43972107 274.14001648 -18.47613708 284.38838562 -18.51365662 294.9473114 C-18.52703197 304.11085241 -18.52703197 304.11085241 -18.53507996 313.2743988 C-18.53881595 317.3651441 -18.55384277 321.45568307 -18.5756073 325.54637146 C-18.60297664 330.75928474 -18.61128227 335.97189655 -18.60559416 341.18487501 C-18.60678414 343.10115604 -18.61475585 345.01744726 -18.63016558 346.93366671 C-18.6499782 349.51674531 -18.64529768 352.09864336 -18.63432312 354.68174744 C-18.64597378 355.4363966 -18.65762444 356.19104576 -18.66962814 356.96856308 C-18.63261664 360.19593617 -18.34194488 362.33274534 -16.64752579 365.10739517 C-13.09746451 367.29111898 -9.80793262 367.19474407 -5.76475525 367.14958191 C-4.91069737 367.15582187 -4.05663949 367.16206183 -3.17670107 367.16849089 C-0.30989906 367.18446797 2.55605824 367.17179828 5.42286682 367.15922546 C7.47605893 367.16464448 9.52924715 367.1717659 11.58242798 367.1804657 C17.16295688 367.19872805 22.74319057 367.19161942 28.32372475 367.17894936 C34.15817192 367.16883681 39.99259348 367.17821018 45.82704163 367.18449402 C55.62579395 367.19177551 65.42442576 367.18216952 75.22315979 367.16313171 C86.5590129 367.14136209 97.89457827 367.1484131 109.2304244 367.17043734 C118.95535292 367.188577 128.68019471 367.19115666 138.40513468 367.18068266 C144.21683374 367.17443986 150.02839747 367.17363374 155.84008789 367.18682861 C161.30337461 367.19836558 166.76628959 367.19040061 172.22953606 367.16725159 C174.2370994 367.16195299 176.24469392 367.16349783 178.25224495 367.17230225 C180.98797037 367.18319589 183.72249662 367.16956925 186.45814514 367.14958191 C187.25697349 367.1585048 188.05580184 367.16742768 188.87883711 367.17662096 C192.21564532 367.12917048 194.47418995 366.87078368 197.34091568 365.10739517 C199.43631823 361.67612579 199.38793244 358.58234632 199.32771301 354.68174744 C199.33284912 353.47285103 199.33284912 353.47285103 199.33808899 352.23953247 C199.34471633 349.52718364 199.32260778 346.81582012 199.30079651 344.1035614 C199.29957136 342.13064989 199.30010481 340.15773662 199.30225754 338.1848259 C199.30316158 332.89543279 199.27995759 327.60640072 199.2518158 322.3170929 C199.22905694 317.35609279 199.22796448 312.39518106 199.22511292 307.43412781 C199.2041132 292.91991972 199.1482687 278.40577899 199.09669495 263.89164734 C199.01419495 231.46914734 198.93169495 199.04664734 198.84669495 165.64164734 C127.23669495 165.64164734 55.62669495 165.64164734 -18.15330505 165.64164734 Z " fill="#0B090B" transform="translate(26.153305053710938,-0.6416473388671875)"/>
<path d="M0 0 C0.91122116 -0.0071553 1.82244232 -0.01431061 2.76127625 -0.02168274 C3.76388992 -0.02437164 4.7665036 -0.02706055 5.79949951 -0.02983093 C6.853293 -0.03640213 7.90708649 -0.04297333 8.99281311 -0.04974365 C12.49185247 -0.06950838 15.99084885 -0.08114647 19.4899292 -0.09111023 C20.68315544 -0.09518576 21.87638168 -0.09926128 23.1057663 -0.10346031 C29.42148161 -0.1243348 35.73717511 -0.13863044 42.05291748 -0.147995 C48.58114357 -0.15906099 55.10902895 -0.19345959 61.63713455 -0.23316669 C66.65228922 -0.25929591 71.66736228 -0.26768358 76.68257904 -0.27127647 C79.08914236 -0.27615213 81.4957018 -0.28779379 83.90219879 -0.30631447 C87.27058494 -0.33062596 90.63808399 -0.32975502 94.00653076 -0.32279968 C95.00104752 -0.33560974 95.99556427 -0.3484198 97.0202179 -0.36161804 C102.89740984 -0.31737942 106.15858405 0.28391083 110.6618042 4.14717102 C114.07035618 8.0258681 114.78528588 11.26869649 114.83880615 16.3495636 C114.85805901 17.94185539 114.85805901 17.94185539 114.87770081 19.5663147 C114.88508774 20.7131926 114.89247467 21.8600705 114.90008545 23.04170227 C114.9081572 24.22181381 114.91622894 25.40192535 114.92454529 26.61779785 C114.93838334 29.11691316 114.94910674 31.61604735 114.95697021 34.1151886 C114.97418916 37.93415661 115.01808032 41.75226041 115.06219482 45.57099915 C115.07232125 47.99872715 115.08083751 50.42646252 115.08758545 52.85420227 C115.10509354 53.99500748 115.12260162 55.13581268 115.14064026 56.31118774 C115.12403802 62.38889383 115.04154505 66.51882444 110.6618042 71.14717102 C105.27885405 75.74583278 100.82358892 75.72008352 94.07000732 75.66474915 C92.48844093 75.67526306 92.48844093 75.67526306 90.87492371 75.68598938 C87.39736421 75.70356247 83.92062165 75.69194838 80.4430542 75.67842102 C78.02219487 75.68111611 75.60133659 75.68499868 73.18048096 75.6900177 C68.10986004 75.69591185 63.03952121 75.68735206 57.96893311 75.6686554 C51.47213538 75.6458664 44.97599864 75.65898985 38.47922516 75.68294525 C33.48119128 75.69740517 28.48331388 75.69279623 23.48527527 75.68243408 C21.0898989 75.67976736 18.69450829 75.68303461 16.29914856 75.69235229 C12.95025034 75.70252056 9.60241985 75.68701138 6.25360107 75.66474915 C5.2653685 75.67284607 4.27713593 75.68094299 3.25895691 75.68928528 C-2.5940096 75.61727053 -5.84918101 74.98656294 -10.3381958 71.14717102 C-13.72202035 67.29661205 -14.46174069 64.08341887 -14.49932861 59.03657532 C-14.50893616 57.99506821 -14.5185437 56.9535611 -14.52844238 55.88049316 C-14.53269226 54.75548904 -14.53694214 53.63048492 -14.5413208 52.47138977 C-14.54702087 51.31347427 -14.55272095 50.15555878 -14.55859375 48.96255493 C-14.56804576 46.51051244 -14.57457852 44.05845722 -14.57843018 41.60639954 C-14.58813022 37.85999816 -14.61915032 34.11414661 -14.6506958 30.36787415 C-14.65722646 27.98571595 -14.66247668 25.60355382 -14.6663208 23.22138977 C-14.6786676 22.10245834 -14.6910144 20.98352692 -14.70373535 19.83068848 C-14.68768705 14.21068781 -14.62874211 9.94335295 -11.3381958 5.14717102 C-7.50965791 1.69214902 -5.12003904 0.02755137 0 0 Z M-5.3381958 11.14717102 C-5.7928633 13.56419605 -5.7928633 13.56419605 -5.72637939 16.30537415 C-5.73583588 17.35656433 -5.74529236 18.40775452 -5.7550354 19.49079895 C-5.74896271 20.62521423 -5.74289001 21.75962952 -5.7366333 22.92842102 C-5.73950348 24.09345154 -5.74237366 25.25848206 -5.74533081 26.45881653 C-5.74737347 28.92346177 -5.74182959 31.38812314 -5.72930908 33.85273743 C-5.71325921 37.63223917 -5.72915194 41.41067142 -5.74835205 45.19013977 C-5.74636966 47.58206922 -5.74252606 49.97399801 -5.7366333 52.36592102 C-5.74270599 53.5003363 -5.74877869 54.63475159 -5.7550354 55.80354309 C-5.74557892 56.85473328 -5.73612244 57.90592346 -5.72637939 58.9889679 C-5.72279922 60.37771118 -5.72279922 60.37771118 -5.71914673 61.79450989 C-5.25484387 64.66193248 -4.59161212 65.36940327 -2.3381958 67.14717102 C-0.29930889 67.60152607 -0.29930889 67.60152607 1.9818573 67.5415802 C2.86368683 67.55292999 3.74551636 67.56427979 4.65406799 67.57597351 C6.1012043 67.57157761 6.1012043 67.57157761 7.57757568 67.5670929 C8.5957135 67.57556244 9.61385132 67.58403198 10.6628418 67.59275818 C14.03632009 67.61620241 17.40934427 67.61714855 20.78289795 67.61592102 C23.12315556 67.62301808 25.46341142 67.63071639 27.80366516 67.63899231 C32.71223791 67.6524542 37.62064977 67.65399816 42.52923584 67.64814758 C48.82573555 67.64224989 55.12146462 67.67283892 61.41781521 67.71326447 C66.25191929 67.73908847 71.08583652 67.74202367 75.92000008 67.7383728 C78.24168904 67.740069 80.56338619 67.74975924 82.88500786 67.76751709 C86.12941229 67.78960136 89.37224009 67.78005749 92.61663818 67.7624054 C93.57937149 67.77566864 94.5421048 67.78893188 95.53401184 67.80259705 C100.8731186 67.77043893 100.8731186 67.77043893 105.25727844 64.92709351 C106.72970227 62.01278305 107.16746413 60.29294562 107.17938232 57.05317688 C107.19199097 56.0654277 107.20459961 55.07767853 107.21759033 54.05999756 C107.20949341 53.00466324 107.20139648 51.94932892 107.1930542 50.86201477 C107.1968811 49.76877396 107.20070801 48.67553314 107.20465088 47.54916382 C107.20736888 45.24189837 107.20001562 42.93460205 107.18328857 40.62739563 C107.16185821 37.09357683 107.18310613 33.56178647 107.2086792 30.0280304 C107.20603631 27.78518736 107.20091214 25.54234559 107.1930542 23.29951477 C107.20115112 22.24215622 107.20924805 21.18479767 107.21759033 20.09539795 C107.20498169 19.11080093 107.19237305 18.12620392 107.17938232 17.11177063 C107.17619995 16.24748947 107.17301758 15.38320831 107.16973877 14.49273682 C106.43468165 11.09835309 105.5762444 10.07974796 102.6618042 8.14717102 C99.3144209 7.55831427 96.00788708 7.61140641 92.61663818 7.64546204 C91.59674805 7.64005905 90.57685791 7.63465607 89.52606201 7.62908936 C86.15304598 7.61657635 82.78087912 7.63310969 79.40789795 7.65107727 C77.06667537 7.65092236 74.72545252 7.64943462 72.38423157 7.64666748 C67.4773729 7.64528237 62.57080613 7.65786165 57.66400146 7.68061829 C51.36646797 7.70901857 45.06941907 7.70626268 38.77184963 7.69352818 C33.93778831 7.68658224 29.10383952 7.69434764 24.26979256 7.7067852 C21.94730116 7.71130915 19.62479773 7.71162831 17.30230522 7.7077198 C14.06047557 7.70481788 10.81932025 7.72126574 7.57757568 7.74311829 C6.61281815 7.73861664 5.64806061 7.73411499 4.65406799 7.72947693 C3.3313237 7.74433388 3.3313237 7.74433388 1.9818573 7.75949097 C1.21551185 7.76192086 0.44916639 7.76435076 -0.34040165 7.76685429 C-2.88152647 8.25060397 -3.77348927 9.12195879 -5.3381958 11.14717102 Z " fill="#060406" transform="translate(66.33819580078125,23.852828979492188)"/>
<path d="M0 0 C0.80661524 -0.0055344 1.61323048 -0.01106879 2.44428861 -0.0167709 C5.14451901 -0.03037388 7.84382454 -0.01541053 10.54403687 -0.00050354 C12.48077283 -0.00428679 14.4175061 -0.00978688 16.35423279 -0.01687622 C21.61234984 -0.03084544 26.87014022 -0.0196515 32.12823915 -0.00316501 C37.62681625 0.01067476 43.12537418 0.00422679 48.6239624 0.0007019 C57.8560005 -0.00200061 67.0879086 0.01148054 76.31991577 0.03465271 C87.00196566 0.06127841 97.68379841 0.06300468 108.36587012 0.05126435 C118.63402125 0.04049661 128.90209363 0.04666472 139.17023849 0.06081963 C143.54420197 0.06658656 147.91810796 0.06649123 152.2920723 0.06175423 C157.43850708 0.05699239 162.58470312 0.06705315 167.73109245 0.08870888 C169.62297065 0.09428717 171.51487175 0.09473254 173.40675163 0.08975601 C175.9827797 0.08382813 178.55807161 0.09625965 181.1340332 0.11352539 C181.88840089 0.10751535 182.64276859 0.1015053 183.4199959 0.09531313 C188.49168469 0.15742835 188.49168469 0.15742835 190.92790794 2.02543545 C191.2619092 2.51243955 191.59591045 2.99944365 191.94003296 3.50120544 C191.44180716 3.33951842 190.94358135 3.1778314 190.4302578 3.01124477 C186.99025362 2.30667489 183.59247956 2.34612792 180.09643555 2.34057617 C179.30095853 2.33548835 178.50548152 2.33040053 177.68589914 2.32515854 C175.01751967 2.30944884 172.34916726 2.30091302 169.68075562 2.29246521 C167.76874114 2.28292583 165.85672838 2.27303463 163.94471741 2.26281738 C157.66453089 2.23145171 151.38433118 2.21117251 145.10409546 2.19261169 C144.03579231 2.18931437 142.96748916 2.18601705 141.86681318 2.18261981 C131.79383824 2.15184797 121.72086029 2.12513936 111.64785194 2.10820103 C98.76029829 2.08627554 85.87316021 2.04425511 72.98577273 1.97476345 C63.9249537 1.9275614 54.86424699 1.90327282 45.80330884 1.89600414 C40.39045753 1.89104359 34.97807486 1.87592321 29.56535721 1.83625984 C24.47462407 1.79944573 19.38462831 1.7909667 14.293787 1.80426598 C12.4257074 1.80421195 10.55759552 1.79388271 8.68963814 1.77251434 C6.13806525 1.74488613 3.58919196 1.75431505 1.03759766 1.77294922 C0.29906827 1.75615429 -0.43946112 1.73935936 -1.20037019 1.72205549 C-5.42516098 1.79911778 -7.56655094 2.596463 -10.44106483 5.54672146 C-11.30530256 6.52170117 -12.16954029 7.49668089 -13.05996704 8.50120544 C-13.71996704 8.50120544 -14.37996704 8.50120544 -15.05996704 8.50120544 C-12.24878019 1.34545708 -7.1621339 -0.09173459 0 0 Z " fill="#292729" transform="translate(26.059967041015625,-0.5012054443359375)"/>
<path d="M0 0 C0.8353125 0.37125 0.8353125 0.37125 1.6875 0.75 C0.945 1.1625 0.2025 1.575 -0.5625 2 C-3.36334308 3.64266462 -3.36334308 3.64266462 -5.5 5.9375 C-6.098125 6.535625 -6.69625 7.13375 -7.3125 7.75 C-7.9725 7.75 -8.6325 7.75 -9.3125 7.75 C-7.69865111 3.642021 -4.79776509 -0.51867731 0 0 Z " fill="#878687" transform="translate(20.3125,0.25)"/>
<path d="M0 0 C0 0.99 0 1.98 0 3 C-0.66 2.67 -1.32 2.34 -2 2 C-1.34 1.34 -0.68 0.68 0 0 Z " fill="#FFFEFF" transform="translate(2,114)"/>
<path d="" fill="#FFFEFF" transform="translate(0,0)"/>
<path d="" fill="#FFFEFF" transform="translate(0,0)"/>
</svg>
