<?xml version="1.0" encoding="UTF-8"?>
<svg version="1.1" xmlns="http://www.w3.org/2000/svg" width="222" height="388">
<path d="M0 0 C0.72197307 -0.00297112 1.44394614 -0.00594224 2.18779719 -0.0090034 C4.60743847 -0.01767626 7.0270302 -0.01919744 9.44668579 -0.02069092 C11.18136195 -0.02532003 12.9160371 -0.03034482 14.65071106 -0.03573608 C19.36353629 -0.04885163 24.07634728 -0.05530319 28.78918791 -0.05974674 C31.73340897 -0.06267835 34.67762614 -0.06678328 37.62184525 -0.07125092 C46.8333072 -0.08492255 56.04476027 -0.0945913 65.25623167 -0.09845281 C75.89050285 -0.1029353 86.5246456 -0.12049345 97.15887773 -0.1494534 C105.37894434 -0.17106231 113.59897479 -0.18115664 121.8190695 -0.18249393 C126.72874808 -0.18354236 131.63830588 -0.18945859 136.54795456 -0.20731354 C141.16577538 -0.2237809 145.78338444 -0.22595622 150.40122414 -0.21717453 C152.09512333 -0.21640349 153.78903386 -0.22075575 155.48290443 -0.23063278 C157.79736764 -0.24333616 160.111079 -0.23748474 162.42553711 -0.22705078 C163.72006994 -0.22851734 165.01460278 -0.2299839 166.34836388 -0.2314949 C170.78775174 0.24143207 174.13872391 1.62527418 177.48428345 4.60528564 C181.11155609 9.17880333 181.97113878 12.21309946 181.94413757 17.94020081 C181.94147888 19.38471619 181.94147888 19.38471619 181.93876648 20.8584137 C181.92854713 22.43334846 181.92854713 22.43334846 181.91812134 24.0401001 C181.91200601 26.34261529 181.90607918 28.645131 181.90031433 30.94764709 C181.893306 32.77879531 181.893306 32.77879531 181.88615608 34.64693642 C181.86700412 41.10767619 181.88218476 47.56836552 181.89248657 54.02911377 C181.90527324 62.25252659 181.90728113 70.47546246 181.86392212 78.6987915 C181.8290059 85.34316519 181.83594629 91.98668083 181.86749077 98.6311245 C181.87241887 101.16244947 181.86311419 103.69384384 181.83928108 106.22506142 C181.80787304 109.76873883 181.82604881 113.30897977 181.85562134 116.8526001 C181.83463882 117.89648392 181.81365631 118.94036774 181.79203796 120.0158844 C181.86766765 125.5959302 181.86766765 125.5959302 184.65127373 130.25169945 C186.7865189 132.11009251 186.7865189 132.11009251 189.0266943 133.61540508 C191.22430761 135.46390711 191.33394702 136.36521432 191.8397522 139.14044189 C191.92810583 140.53578915 191.96875343 141.9346679 191.97117996 143.33280754 C191.97502111 144.16611969 191.97886225 144.99943184 191.9828198 145.85799587 C191.98195331 146.76829748 191.98108683 147.67859909 191.98019409 148.6164856 C191.98316521 149.58755536 191.98613634 150.55862513 191.98919749 151.55912125 C191.99788774 154.82175113 191.99939301 158.08434432 192.00088501 161.34698486 C192.00551289 163.68263833 192.01053751 166.01829104 192.01593018 168.35394287 C192.02905758 174.7051457 192.0354996 181.05633796 192.03994083 187.40755224 C192.04287051 191.37358207 192.04697509 195.33960899 192.05144501 199.30563736 C192.0635529 210.28780167 192.07393571 221.26996346 192.0773201 232.25213432 C192.07764945 233.30609676 192.07764945 233.30609676 192.07798545 234.38135136 C192.07820373 235.08566382 192.07842201 235.78997629 192.0786469 236.51563156 C192.07909036 237.94281443 192.07953693 239.3699973 192.07998657 240.79718018 C192.08031872 241.85907585 192.08031872 241.85907585 192.08065757 242.94242395 C192.08460653 254.41623005 192.10206457 265.88997268 192.12534609 277.36375426 C192.14905934 289.14542169 192.16152191 300.92705726 192.16268802 312.70874894 C192.1637374 319.32310084 192.16967388 325.93736319 192.18750763 332.55169296 C192.20395193 338.77165167 192.20616148 344.99145312 192.19736862 351.21142578 C192.19659634 353.49551946 192.20096596 355.77962147 192.21082687 358.063694 C192.22349069 361.1794616 192.21769965 364.29466756 192.20724487 367.41043091 C192.21932948 368.76919116 192.21932948 368.76919116 192.23165822 370.15540111 C192.17848804 376.92106455 190.92871086 380.91522784 186.17844296 385.97533894 C182.15537405 388.58425334 179.0636232 388.84510702 174.42070007 388.78208923 C173.5874678 388.79059475 172.75423553 388.79910027 171.8957538 388.80786353 C169.11110932 388.83010172 166.32780517 388.81670622 163.54312134 388.80328369 C161.54375757 388.81169824 159.54440174 388.82222396 157.5450592 388.83470154 C152.11935708 388.86176432 146.69411451 388.8570448 141.26837468 388.84500098 C136.73794944 388.8378714 132.20760929 388.84636781 127.67719072 388.85490638 C116.9891939 388.87486284 106.30142072 388.86928457 95.61343384 388.847229 C84.58876771 388.82486516 73.56468712 388.84246345 62.54007632 388.88027829 C53.07236299 388.91151188 43.60483093 388.91942822 34.1370725 388.90832454 C28.48340243 388.90183663 22.83007026 388.90384402 17.17643929 388.92764854 C11.8598801 388.94889382 6.54414723 388.94093108 1.22764015 388.91055489 C-0.72222566 388.90422514 -2.67215557 388.90809394 -4.62197495 388.922966 C-7.28700032 388.94164388 -9.94932136 388.92324182 -12.61421204 388.89561462 C-13.7681183 388.9167143 -13.7681183 388.9167143 -14.94533581 388.93824023 C-20.15798303 388.82955606 -23.03342267 387.39433944 -26.77030647 383.74437606 C-30.94113565 378.93141362 -30.44614861 373.59554058 -30.42094421 367.54414368 C-30.42476976 366.57221949 -30.42859531 365.60029529 -30.43253678 364.59891886 C-30.4428627 361.33934887 -30.43887537 358.07995517 -30.43490601 354.82037354 C-30.43925268 352.4845717 -30.44443568 350.1487713 -30.45039368 347.81297302 C-30.46379923 341.46594519 -30.46436063 335.11897684 -30.46183038 328.77193761 C-30.46062665 322.80629924 -30.46683595 316.84067092 -30.47226384 310.87503558 C-30.4831388 298.33825993 -30.48097705 285.80151118 -30.47487899 273.26473402 C-30.46970943 261.79745344 -30.48096636 250.3302578 -30.49997721 238.86299402 C-30.51935206 227.08580947 -30.52761226 215.30866511 -30.52385396 203.53146452 C-30.52203897 196.92048805 -30.5246989 190.30958938 -30.5385685 183.69862556 C-30.55112097 177.48274758 -30.54922709 171.26703992 -30.53615761 165.05116463 C-30.5337867 162.76868635 -30.53654482 160.48619618 -30.54478073 158.20373154 C-30.55520614 155.09019664 -30.54718103 151.9772377 -30.5344696 148.86372375 C-30.54553103 147.50598668 -30.54553103 147.50598668 -30.55681592 146.12082058 C-30.51329746 141.0608921 -30.03826593 137.49028937 -27.1602478 133.14044189 C-26.12366028 132.42138672 -25.08707275 131.70233154 -24.01907349 130.96148682 C-21.91679018 129.31599816 -21.2450934 128.49038792 -20.60825348 125.86373901 C-20.39451177 122.89537401 -20.37585935 119.97961765 -20.41903687 117.00372314 C-20.41161972 115.87961029 -20.40420258 114.75549744 -20.39656067 113.59732056 C-20.37865652 109.88202719 -20.40251687 106.16818532 -20.4258728 102.45294189 C-20.41970059 99.87130905 -20.41060692 97.28968167 -20.39871216 94.70806885 C-20.37648088 88.60476576 -20.37937345 82.50198159 -20.39583468 76.39867496 C-20.42606547 64.82349426 -20.39937501 53.24840212 -20.36855316 41.67324829 C-20.36342988 37.87030802 -20.37329365 34.06762941 -20.38540649 30.26470947 C-20.38521793 27.93552648 -20.38472572 25.60634349 -20.38388062 23.27716064 C-20.3911467 22.21830658 -20.39841278 21.15945251 -20.40589905 20.06851196 C-20.40340652 19.09282257 -20.400914 18.11713318 -20.39834595 17.11187744 C-20.4006081 16.26755661 -20.40287025 15.42323578 -20.40520096 14.55332947 C-19.93478354 9.91952781 -18.34201055 6.84146776 -14.7852478 3.89044189 C-13.90739624 3.14020752 -13.90739624 3.14020752 -13.0118103 2.37481689 C-8.98193437 -0.31176706 -4.72637696 0.01086691 0 0 Z M-9.57616806 10.86925888 C-11.41867143 13.51095818 -11.65520644 14.7949145 -11.64126587 17.98730469 C-11.64676453 18.96043106 -11.65226318 19.93355743 -11.65792847 20.93617249 C-11.64354736 21.99712631 -11.62916626 23.05808014 -11.61434937 24.15118408 C-11.61493347 25.2734288 -11.61551758 26.39567352 -11.61611938 27.55192566 C-11.61333105 31.26403657 -11.58220204 34.97534612 -11.5508728 38.68731689 C-11.54341312 41.25992392 -11.5377189 43.83253663 -11.53372192 46.40515137 C-11.52000609 52.48609169 -11.48847597 58.56670093 -11.44832397 64.64751649 C-11.40359943 71.57125782 -11.38161756 78.49501297 -11.36154222 85.41886282 C-11.31974271 99.6595692 -11.24639325 113.89993639 -11.1602478 128.14044189 C-0.2702478 128.14044189 10.6197522 128.14044189 21.8397522 128.14044189 C22.8297522 124.18044189 23.8197522 120.22044189 24.8397522 116.14044189 C29.51591267 106.00876086 35.50351597 101.04436873 45.8397522 96.95294189 C52.56443518 95.18170843 60.82747214 94.79423039 67.18740845 97.63653564 C71.72936642 99.50675363 75.42534771 99.58480987 80.2772522 99.51544189 C81.08484985 99.52704346 81.89244751 99.53864502 82.72451782 99.55059814 C87.68664976 99.52660718 91.46288215 98.73070674 96.0284729 96.82159424 C103.39671205 94.05068344 112.86841011 96.01982424 119.8397522 99.14044189 C128.08854821 103.86876961 133.79287848 111.16018251 136.8397522 120.14044189 C137.1697522 122.78044189 137.4997522 125.42044189 137.8397522 128.14044189 C149.3897522 128.14044189 160.9397522 128.14044189 172.8397522 128.14044189 C172.93003857 113.21540957 173.00372594 98.29051705 173.04700089 83.36527634 C173.0676281 76.43525162 173.0957514 69.50540859 173.14151001 62.57550049 C173.18562978 55.89060206 173.20887485 49.20593159 173.21926117 42.52088165 C173.22666504 39.96752192 173.2411226 37.41417278 173.26267242 34.86089325 C173.29161236 31.29076097 173.29571199 27.72141435 173.29385376 24.15118408 C173.31542542 22.55975334 173.31542542 22.55975334 173.33743286 20.93617249 C173.3319342 19.96304611 173.32643555 18.98991974 173.32077026 17.98730469 C173.32630102 16.72076113 173.32630102 16.72076113 173.33194351 15.42863083 C172.63393677 12.18360952 171.5297878 11.06541406 168.8397522 9.14044189 C165.51160833 8.53746092 165.51160833 8.53746092 161.70401001 8.63250732 C160.98470936 8.62626736 160.26540871 8.6200274 159.52431107 8.61359835 C157.11349989 8.59764045 154.70369591 8.61028273 152.2928772 8.62286377 C150.56480316 8.61744386 148.83673374 8.61032194 147.1086731 8.60162354 C142.41446121 8.58337152 137.72060055 8.59046542 133.02638245 8.60313988 C128.11683191 8.61325783 123.20731171 8.60387755 118.29776001 8.59759521 C110.05258782 8.5903153 101.80755889 8.59991555 93.56240845 8.61895752 C84.02607874 8.64072692 74.4900911 8.63367579 64.95376968 8.6116519 C56.77022496 8.59350772 48.58678328 8.59093477 40.40322495 8.60140657 C35.51372418 8.60764691 30.62438427 8.60846231 25.7348938 8.59526062 C21.13832057 8.58371702 16.54218891 8.59170046 11.94566345 8.61483765 C10.25738763 8.62013273 8.56907473 8.61859731 6.8808136 8.60978699 C4.57853664 8.59887889 2.27768044 8.61253577 -0.02450562 8.63250732 C-1.95800873 8.63476948 -1.95800873 8.63476948 -3.93057251 8.63707733 C-7.20644041 8.89966101 -7.20644041 8.89966101 -9.57616806 10.86925888 Z M35.4647522 112.64044189 C31.18679702 118.03438538 30.8397522 120.95880567 30.8397522 128.14044189 C35.4597522 128.14044189 40.0797522 128.14044189 44.8397522 128.14044189 C44.9841272 126.67606689 45.1285022 125.21169189 45.2772522 123.70294189 C45.7147522 119.26544189 45.7147522 119.26544189 46.8397522 118.14044189 C48.4897522 118.14044189 50.1397522 118.14044189 51.8397522 118.14044189 C52.1697522 121.44044189 52.4997522 124.74044189 52.8397522 128.14044189 C70.3297522 128.14044189 87.8197522 128.14044189 105.8397522 128.14044189 C106.1697522 125.17044189 106.4997522 122.20044189 106.8397522 119.14044189 C107.1697522 118.81044189 107.4997522 118.48044189 107.8397522 118.14044189 C109.4897522 118.14044189 111.1397522 118.14044189 112.8397522 118.14044189 C113.8297522 123.09044189 113.8297522 123.09044189 114.8397522 128.14044189 C119.7897522 128.14044189 124.7397522 128.14044189 129.8397522 128.14044189 C129.8397522 120.31253891 127.82673 115.96336867 122.4647522 110.32794189 C118.64138401 106.51363383 114.72977521 104.3546445 109.3241272 103.74200439 C100.98390572 103.74034517 100.98390572 103.74034517 92.9022522 105.64044189 C85.29615747 108.31147851 74.89408393 108.68537407 67.3397522 105.64044189 C55.48478657 100.88931887 43.88006845 103.48377636 35.4647522 112.64044189 Z M-19.62034607 137.98712921 C-22.87810818 142.54260202 -21.76870677 148.75513218 -21.7227478 154.14044189 C-21.74659546 155.42434814 -21.77044312 156.70825439 -21.79501343 158.03106689 C-21.79307983 159.26341064 -21.79114624 160.49575439 -21.78915405 161.76544189 C-21.78987915 162.89208252 -21.79060425 164.01872314 -21.79135132 165.17950439 C-21.40445197 168.2583727 -21.40445197 168.2583727 -19.11659241 170.29375458 C-15.42637469 172.59885738 -12.44404854 172.69943386 -8.22763062 172.64837646 C-7.03820044 172.65773641 -7.03820044 172.65773641 -5.82474136 172.66728544 C-3.17064837 172.68322612 -0.51747242 172.67060732 2.1366272 172.65802002 C4.04056331 172.66344067 5.94449523 172.67056301 7.84841919 172.67926025 C13.01781996 172.69750329 18.18690159 172.69042197 23.35630798 172.67774391 C28.76453516 172.66762137 34.17273489 172.67700752 39.58096313 172.68328857 C48.66336985 172.69056714 57.74564648 172.68097174 66.82803345 172.66192627 C77.33058471 172.64015718 87.83282538 172.6472084 98.33536911 172.66923189 C107.3503625 172.68737988 116.36526235 172.68994714 125.3802681 172.67947721 C130.76553692 172.673239 136.15065973 172.67241573 141.53591919 172.68562317 C146.59869435 172.69717225 151.66106881 172.68917303 156.72380066 172.66604614 C158.58258905 172.66075403 160.44141113 172.6622814 162.30018616 172.6710968 C164.83629204 172.6820162 167.37111128 172.66833311 169.90713501 172.64837646 C170.64400417 172.65729935 171.38087334 172.66622224 172.14007187 172.67541552 C175.71968754 172.62071852 177.73276669 172.20727063 180.7960968 170.29375458 C183.53975845 167.40287511 183.47119649 165.70899523 183.46865845 161.76544189 C183.47059204 160.53309814 183.47252563 159.30075439 183.47451782 158.03106689 C183.45067017 156.74716064 183.42682251 155.46325439 183.4022522 154.14044189 C183.41320923 152.85653564 183.42416626 151.57262939 183.43545532 150.24981689 C183.70174833 143.75718101 183.70174833 143.75718101 181.29985046 137.98712921 C177.93753127 135.46318442 174.98581974 135.58431707 170.94473267 135.63250732 C170.14376097 135.62626736 169.34278927 135.6200274 168.5175457 135.61359835 C165.83037866 135.59762806 163.14411366 135.61028806 160.4569397 135.62286377 C158.53182444 135.61744444 156.60671333 135.61032284 154.68161011 135.60162354 C149.45023714 135.58336484 144.21917918 135.59046827 138.9878006 135.60313988 C133.5177067 135.61325433 128.0476401 135.60387853 122.57754517 135.59759521 C113.39080961 135.59031428 104.20420261 135.59991824 95.01748657 135.61895752 C84.39053737 135.64072706 73.76389512 135.63367601 63.13695335 135.6116519 C54.01923682 135.59351063 44.90161279 135.59093335 35.78388405 135.60140657 C30.33547559 135.6076485 24.88721149 135.60845791 19.43881226 135.59526062 C14.31695916 135.58372131 9.1955025 135.59169281 4.07369232 135.61483765 C2.19190886 135.620135 0.31009215 135.61859349 -1.57167816 135.60978699 C-4.13664805 135.59888825 -6.70034025 135.61252559 -9.26522827 135.63250732 C-10.01347429 135.62358444 -10.76172031 135.61466155 -11.53264046 135.60546827 C-14.96672999 135.65751523 -16.83916631 135.89942017 -19.62034607 137.98712921 Z M-21.1602478 179.14044189 C-21.2221228 211.58356689 -21.2839978 244.02669189 -21.3477478 277.45294189 C-21.37505981 287.71041504 -21.40237183 297.96788818 -21.43051147 308.53619385 C-21.44054256 317.70241395 -21.44054256 317.70241395 -21.44657898 326.86863708 C-21.44938262 330.96272116 -21.46065937 335.05668945 -21.47697449 339.15074158 C-21.49748428 344.36611929 -21.50373387 349.58132754 -21.49946463 354.79674184 C-21.50035793 356.71506299 -21.50634664 358.63338979 -21.5178932 360.55167639 C-21.53272525 363.13493375 -21.52925156 365.71752517 -21.52101135 368.30079651 C-21.52974935 369.05835834 -21.53848734 369.81592016 -21.54749012 370.59643841 C-21.52350394 373.37720935 -21.43472708 375.61722908 -20.12878895 378.1066103 C-16.98036946 379.7600863 -13.77360176 379.55196984 -10.30282593 379.52139282 C-9.49383598 379.52607279 -8.68484604 379.53075277 -7.85134125 379.53557456 C-5.13122836 379.54757345 -2.41161474 379.53804835 0.3085022 379.52862549 C2.25479426 379.53268902 4.20108402 379.53802966 6.14736938 379.54455566 C11.44067005 379.55826106 16.73379579 379.55291732 22.02709961 379.54341841 C27.55905641 379.53583849 33.09099795 379.54286277 38.62295532 379.5475769 C47.91399839 379.55303933 57.20496998 379.54583007 66.4960022 379.53155518 C77.24730405 379.51522776 87.99843525 379.52051592 98.74973297 379.53703439 C107.97016107 379.55063539 117.19053771 379.55257571 126.4109726 379.54471838 C131.92249856 379.54003424 137.43394424 379.53943735 142.94546509 379.54932785 C148.12633274 379.55797508 153.30697974 379.55201673 158.48782349 379.53464508 C160.39260491 379.53066822 162.29740481 379.53183467 164.20217896 379.53843307 C166.79581598 379.54659142 169.38873919 379.53639664 171.98233032 379.52139282 C173.12176464 379.53143107 173.12176464 379.53143107 174.28421783 379.54167211 C177.06882747 379.51027464 179.31620156 379.4153984 181.80829334 378.1066103 C183.45761443 374.96267198 183.24047306 371.76499383 183.20051575 368.30079651 C183.2030838 367.49572159 183.20565186 366.69064667 183.20829773 365.86117554 C183.21327668 363.145877 183.19667199 360.43112944 183.18032837 357.71588135 C183.17940971 355.74309145 183.17980925 353.77030056 183.18142414 351.7975111 C183.18210274 346.50397981 183.16468778 341.21065107 183.14359283 335.91716766 C183.12653561 330.95394741 183.12570499 325.99077696 183.12356567 321.02752686 C183.10781 306.50263827 183.06592671 291.97778754 183.0272522 277.45294189 C182.9344397 228.78825439 182.9344397 228.78825439 182.8397522 179.14044189 C115.5197522 179.14044189 48.1997522 179.14044189 -21.1602478 179.14044189 Z " fill="#111011" transform="translate(30.160247802734375,-0.14044189453125)"/>
<path d="M0 0 C1.39424194 -0.00856522 1.39424194 -0.00856522 2.81665039 -0.01730347 C3.83953659 -0.01842133 4.86242279 -0.01953918 5.91630554 -0.02069092 C6.99121246 -0.02565582 8.06611938 -0.03062073 9.17359924 -0.03573608 C12.74238212 -0.05038419 16.31112054 -0.05716425 19.87992859 -0.06268311 C22.35373944 -0.06843253 24.82755027 -0.07419028 27.30136108 -0.07995605 C32.49413766 -0.09047369 37.68689871 -0.09631132 42.87968445 -0.09979248 C49.53798815 -0.10449149 56.19605834 -0.12930341 62.85430622 -0.15776443 C67.9663554 -0.17637618 73.07835521 -0.18159565 78.19043541 -0.18312836 C80.64526169 -0.18615889 83.10008702 -0.19420081 85.55488014 -0.20731354 C88.98801401 -0.22434249 92.42064674 -0.22250119 95.85380554 -0.21600342 C96.87061905 -0.2252182 97.88743256 -0.23443298 98.93505859 -0.243927 C105.81721855 -0.20306381 109.100741 0.98791143 114.3457489 5.54327393 C118.00289238 10.21394405 117.33215753 16.03310413 117.31352234 21.69512939 C117.32304932 22.91064484 117.33257629 24.12616028 117.34239197 25.37850952 C117.3545391 27.94544657 117.35373454 30.5124732 117.34086609 33.07940674 C117.32920557 36.99588251 117.38140472 40.908032 117.43852234 44.82403564 C117.44240824 47.32273054 117.44253226 49.8214347 117.43852234 52.32012939 C117.45896606 53.48494843 117.47940979 54.64976746 117.50047302 55.84988403 C117.40087999 62.87569062 116.35510855 66.69246348 111.31135559 71.69657898 C106.47024292 75.73183458 101.49183798 75.47717019 95.45414734 75.45294189 C94.64332703 75.46905518 93.83250671 75.48516846 92.99711609 75.50177002 C92.21723328 75.50241455 91.43735046 75.50305908 90.63383484 75.50372314 C89.92726746 75.5067041 89.22070007 75.50968506 88.49272156 75.51275635 C86.00211462 75.02817156 85.08692313 74.1509093 83.57914734 72.14044189 C84.00019997 67.71938926 84.00019997 67.71938926 85.57914734 66.14044189 C86.95852005 66.02025377 88.34334439 65.96101039 89.72758484 65.92950439 C90.56805359 65.90114502 91.40852234 65.87278564 92.27445984 65.84356689 C94.05290088 65.7917173 95.8315776 65.74737715 97.61039734 65.71075439 C98.45344421 65.67981689 99.29649109 65.64887939 100.16508484 65.61700439 C101.32596619 65.58727539 101.32596619 65.58727539 102.51029968 65.5569458 C105.15603471 65.02430195 105.92270209 64.25308905 107.57914734 62.14044189 C108.03298606 59.84573162 108.03298606 59.84573162 107.96733093 57.25762939 C107.98151566 55.7709375 107.98151566 55.7709375 107.99598694 54.25421143 C107.98991425 53.18541748 107.98384155 52.11662354 107.97758484 51.01544189 C107.98045502 49.91699951 107.9833252 48.81855713 107.98628235 47.68682861 C107.9883247 45.36341843 107.98278297 43.03999111 107.97026062 40.71661377 C107.95421012 37.15437477 107.97010432 33.59327048 107.98930359 30.03106689 C107.98732119 27.77585605 107.98347758 25.52064591 107.97758484 23.26544189 C107.98365753 22.19664795 107.98973022 21.127854 107.99598694 20.02667236 C107.98653046 19.03554443 107.97707397 18.0444165 107.96733093 17.02325439 C107.96375076 15.71445312 107.96375076 15.71445312 107.96009827 14.37921143 C107.48675578 11.59747587 106.77202226 10.87278771 104.57914734 9.14044189 C102.50026029 8.69120717 102.50026029 8.69120717 100.16970825 8.75949097 C99.2681601 8.75103149 98.36661194 8.74257202 97.43774414 8.7338562 C96.45114304 8.73992889 95.46454193 8.74600159 94.44804382 8.7522583 C93.40718628 8.74700134 92.36632874 8.74174438 91.29393005 8.73632812 C87.84588209 8.72310038 84.39829393 8.73187563 80.95024109 8.74200439 C78.56035269 8.73998462 76.17046489 8.73707399 73.78057861 8.73330688 C68.76944619 8.72887989 63.75847405 8.7353274 58.74736023 8.74932861 C52.31183603 8.76642975 45.87668688 8.75657552 39.44117641 8.73861122 C34.50594231 8.72779151 29.57079773 8.73121125 24.63556099 8.7389946 C22.26199868 8.74100114 19.88842835 8.7385215 17.51487541 8.73155594 C14.20331535 8.72397036 10.89237035 8.73550495 7.58085632 8.7522583 C6.59223099 8.74618561 5.60360565 8.74011292 4.58502197 8.7338562 C3.23692947 8.74654541 3.23692947 8.74654541 1.86160278 8.75949097 C1.07828803 8.76062204 0.29497328 8.76175312 -0.51207829 8.76291847 C-1.14197383 8.8875012 -1.77186937 9.01208393 -2.42085266 9.14044189 C-4.57955049 12.37848864 -4.6757661 13.28404981 -4.69551086 17.02325439 C-4.70504288 18.01438232 -4.71457489 19.00551025 -4.72439575 20.02667236 C-4.72302864 21.62986328 -4.72302864 21.62986328 -4.72163391 23.26544189 C-4.72591904 24.36388428 -4.73020416 25.46232666 -4.73461914 26.59405518 C-4.74036451 28.91745311 -4.74086119 31.24086903 -4.73652649 33.56427002 C-4.7333651 37.12642955 -4.75682894 40.68776001 -4.78218079 44.24981689 C-4.78445353 46.50502418 -4.78515739 48.7602337 -4.78413391 51.01544189 C-4.79334366 52.08423584 -4.80255341 53.15302979 -4.81204224 54.25421143 C-4.80581345 55.24533936 -4.79958466 56.23646729 -4.79316711 57.25762939 C-4.79379654 58.13016357 -4.79442596 59.00269775 -4.79507446 59.90167236 C-4.34200233 62.61216138 -3.58083472 63.49292286 -1.42085266 65.14044189 C0.56591382 65.60825843 0.56591382 65.60825843 2.73930359 65.58184814 C3.92943054 65.62148682 3.92943054 65.62148682 5.14360046 65.66192627 C5.96795593 65.67546143 6.7923114 65.68899658 7.64164734 65.70294189 C9.27856872 65.73733635 10.91534465 65.7799182 12.55180359 65.83184814 C13.27633728 65.8441748 14.00087097 65.85650146 14.74736023 65.86920166 C16.57914734 66.14044189 16.57914734 66.14044189 18.57914734 68.14044189 C18.89164734 70.64044189 18.89164734 70.64044189 18.57914734 73.14044189 C14.77669475 75.67541029 11.67140377 75.47165369 7.26664734 75.45294189 C6.51963562 75.46905518 5.7726239 75.48516846 5.00297546 75.50177002 C-0.58268512 75.50667402 -4.83156796 74.55751764 -9.06538391 70.60528564 C-12.31084823 66.36121692 -13.53997779 64.28726405 -13.64546204 58.99151611 C-13.66798035 57.91634735 -13.69049866 56.84117859 -13.71369934 55.73342896 C-13.78468527 50.79918354 -13.84225224 45.86509104 -13.8808136 40.93048096 C-13.90739837 38.33100946 -13.94829806 35.73164299 -14.00386047 33.13262939 C-14.08310843 29.38219607 -14.1161472 25.63377808 -14.13960266 21.88262939 C-14.1725946 20.72713593 -14.20558655 19.57164246 -14.23957825 18.38113403 C-14.22519252 12.54959949 -13.87197253 8.93067524 -10.00093079 4.40655518 C-6.65237445 1.08002739 -4.71163579 0.01729854 0 0 Z " fill="#060506" transform="translate(59.42085266113281,15.85955810546875)"/>
<path d="M0 0 C7.42398019 5.27170703 13.08190191 12.45139304 14.81640625 21.57421875 C15.69140874 32.16031444 14.43259935 40.51251131 7.56640625 48.82421875 C0.79665792 56.00073308 -5.78780628 60.73628845 -15.82128906 61.05639648 C-25.01130626 61.12224565 -31.71029192 60.48730494 -39.18359375 54.57421875 C-39.85648438 54.04441406 -40.529375 53.51460937 -41.22265625 52.96875 C-47.19780592 47.61654147 -51.00055187 41.34981165 -51.62890625 33.28125 C-52.04098969 23.33804174 -51.50928336 14.8170157 -44.97265625 6.89453125 C-32.58660715 -6.25373625 -15.68931629 -10.24436573 0 0 Z M-38.05859375 11.51171875 C-43.39395427 17.75284978 -43.79668563 23.91250543 -43.5546875 31.90625 C-42.74901992 39.86963793 -38.0723623 44.07790731 -32.24609375 49.12890625 C-25.82703915 53.62710739 -18.7452791 53.38079852 -11.18359375 52.57421875 C-4.76476911 50.49644893 0.17310537 46.21237617 3.81640625 40.57421875 C7.13275619 33.97570804 6.94438272 25.16465465 5.19921875 18.0625 C2.54309099 12.08033616 -2.59505669 7.95599114 -7.94921875 4.40234375 C-18.69983506 0.41784959 -30.49138632 3.35886187 -38.05859375 11.51171875 Z " fill="#0A080A" transform="translate(129.18359375,33.42578125)"/>
</svg>
